<svg width="68" height="65" viewBox="0 0 68 65" fill="none" xmlns="http://www.w3.org/2000/svg">
<rect width="68" height="65" rx="15" fill="#070707"/>
<g clip-path="url(#clip0_2243_192)">
<path d="M58.0479 33C58.0479 20.2485 48.0324 9.792 35.4399 9.0465C35.1804 9.018 34.9209 8.9985 34.6554 8.9985C34.5774 8.9985 34.4994 9.006 34.4214 9.009C34.2819 9.006 34.1424 8.9985 33.9999 8.9985C20.7399 8.9985 9.9519 19.7655 9.9519 33C9.9519 46.2345 20.7399 57.0015 33.9999 57.0015C34.1409 57.0015 34.2819 56.9925 34.4214 56.9895C34.4994 56.9925 34.5774 57.0015 34.6554 57.0015C34.9194 57.0015 35.1789 56.9835 35.4399 56.9535C48.0324 56.208 58.0479 45.7515 58.0479 33ZM53.5734 40.7265C52.7469 40.4865 50.6709 39.966 47.0079 39.5355C47.3109 37.464 47.4774 35.2755 47.4774 33C47.4774 31.206 47.3739 29.469 47.1819 27.7965C51.8229 27.2415 53.8569 26.544 53.9919 26.496L53.4339 24.921C54.4764 27.4095 55.0539 30.138 55.0539 33C55.0539 35.727 54.5259 38.3325 53.5734 40.7265ZM23.3814 33C23.3814 31.3215 23.4924 29.682 23.6964 28.1055C26.1279 28.296 29.0379 28.4385 32.4549 28.47V38.8785C29.1264 38.91 26.2839 39.045 23.8914 39.2295C23.5614 37.251 23.3814 35.1585 23.3814 33ZM35.4504 12.198C39.1284 13.2645 42.2784 18.3705 43.6884 25.14C41.4204 25.32 38.6904 25.4535 35.4504 25.4835V12.198ZM32.4564 12.234V25.482C29.2524 25.4505 26.5089 25.3185 24.2034 25.143C25.6434 18.4575 28.8174 13.389 32.4564 12.234ZM32.4564 41.8695V53.763C29.0619 52.686 26.0724 48.2055 24.5169 42.1845C26.7549 42.0195 29.3979 41.901 32.4564 41.8695ZM35.4504 53.802V41.8695C38.5419 41.8995 41.1714 42.0225 43.3824 42.195C41.8539 48.2955 38.8824 52.809 35.4504 53.802ZM35.4504 38.88V28.4715C38.8869 28.44 41.7774 28.2945 44.1774 28.0965C44.3739 29.676 44.4819 31.317 44.4819 32.9985C44.4819 35.1615 44.3079 37.2585 43.9884 39.2385C41.6259 39.0465 38.7954 38.9115 35.4504 38.88ZM52.8819 23.715C52.4289 23.856 50.5359 24.3945 46.7409 24.8415C45.8949 20.3445 44.3649 16.5 42.3759 13.7235C46.9479 15.711 50.6784 19.269 52.8834 23.715H52.8819ZM26.8194 13.2465C24.3714 16.056 22.3749 20.0985 21.2829 24.8775C17.8854 24.51 15.8484 24.0765 15.0339 23.88C17.4114 18.975 21.6444 15.126 26.8179 13.248L26.8194 13.2465ZM13.9209 26.6805C14.4984 26.8365 16.6824 27.381 20.7444 27.8295C20.5119 29.49 20.3844 31.2195 20.3844 33C20.3844 35.2635 20.5884 37.44 20.9589 39.501C17.4714 39.8775 15.3264 40.329 14.3649 40.56C13.4544 38.211 12.9489 35.664 12.9489 32.9985C12.9489 30.798 13.2909 28.674 13.9224 26.679L13.9209 26.6805ZM15.6759 43.329C16.7664 43.098 18.7194 42.744 21.6099 42.4425C22.7484 46.647 24.5994 50.205 26.8194 52.7535C22.0794 51.0315 18.1344 47.655 15.6759 43.329ZM42.3744 52.2735C44.1669 49.776 45.5844 46.413 46.4664 42.486C49.4394 42.8265 51.3054 43.227 52.2459 43.464C49.9959 47.358 46.5339 50.4675 42.3744 52.2735Z" fill="white"/>
</g>
<defs>
<clipPath id="clip0_2243_192">
<rect width="48" height="48" fill="white" transform="translate(10 9)"/>
</clipPath>
</defs>
</svg>
